<svg height="512" viewBox="0 0 64 64" width="512" xmlns="http://www.w3.org/2000/svg"><g id="Server"><path d="m15 36a3 3 0 1 0 3 3 3 3 0 0 0 -3-3zm0 4a1 1 0 1 1 1-1 1 1 0 0 1 -1 1z"/><path d="m23 36a3 3 0 1 0 3 3 3 3 0 0 0 -3-3zm0 4a1 1 0 1 1 1-1 1 1 0 0 1 -1 1z"/><path d="m31 36a3 3 0 1 0 3 3 3 3 0 0 0 -3-3zm0 4a1 1 0 1 1 1-1 1 1 0 0 1 -1 1z"/><path d="m55 32h-1.7a10.981 10.981 0 0 0 -3.016-19.487 8.981 8.981 0 0 0 -11.584-4.881 12.98 12.98 0 0 0 -23.364 4.5 10.985 10.985 0 0 0 -4.636 19.868h-1.7a1 1 0 0 0 -1 1v12a1 1 0 0 0 1 1h4v2h-4a1 1 0 0 0 -1 1v12a1 1 0 0 0 1 1h46a1 1 0 0 0 1-1v-12a1 1 0 0 0 -1-1h-4v-2h4a1 1 0 0 0 1-1v-12a1 1 0 0 0 -1-1zm-47-9a9.04 9.04 0 0 1 8.256-8.961 1 1 0 0 0 .9-.835 10.982 10.982 0 0 1 20.3-3.794 1 1 0 0 0 1.321.378 6.911 6.911 0 0 1 3.223-.788 7.007 7.007 0 0 1 6.593 4.67 1.006 1.006 0 0 0 .689.635 8.994 8.994 0 0 1 -2.282 17.695h-30a9.01 9.01 0 0 1 -9-9zm46 37h-44v-10h44zm-5-12h-34v-2h34zm5-4h-44v-10h44z"/><path d="m38 36h2v2h-2z"/><path d="m38 40h2v2h-2z"/><path d="m44 36h2v2h-2z"/><path d="m44 40h2v2h-2z"/><path d="m50 36h2v2h-2z"/><path d="m50 40h2v2h-2z"/><path d="m15 58a3 3 0 1 0 -3-3 3 3 0 0 0 3 3zm0-4a1 1 0 1 1 -1 1 1 1 0 0 1 1-1z"/><path d="m23 58a3 3 0 1 0 -3-3 3 3 0 0 0 3 3zm0-4a1 1 0 1 1 -1 1 1 1 0 0 1 1-1z"/><path d="m31 58a3 3 0 1 0 -3-3 3 3 0 0 0 3 3zm0-4a1 1 0 1 1 -1 1 1 1 0 0 1 1-1z"/><path d="m38 52h2v2h-2z"/><path d="m38 56h2v2h-2z"/><path d="m44 52h2v2h-2z"/><path d="m44 56h2v2h-2z"/><path d="m50 52h2v2h-2z"/><path d="m50 56h2v2h-2z"/><path d="m26.293 13.293-6 6a1 1 0 0 0 0 1.414l6 6 1.414-1.414-5.293-5.293 5.293-5.293z"/><path d="m35.707 13.293-1.414 1.414 5.293 5.293-5.293 5.293 1.414 1.414 6-6a1 1 0 0 0 0-1.414z"/><path d="m22.754 19h16.492v1.999h-16.492z" transform="matrix(.242 -.97 .97 .242 4.085 45.23)"/></g></svg>