<svg height="512" viewBox="0 0 64 64" width="512" xmlns="http://www.w3.org/2000/svg"><g id="Website-2" data-name="Website"><path d="m6 18h2v2h-2z"/><path d="m10 18h2v2h-2z"/><path d="m14 18h2v2h-2z"/><path d="m46 18h2v2h-2z"/><path d="m61 28h-1v-25a1 1 0 0 0 -1-1h-48a1 1 0 0 0 -1 1v5h-3a1 1 0 0 0 -1 1v5h-3a1 1 0 0 0 -1 1v46a1 1 0 0 0 1 1h48a1 1 0 0 0 1-1v-3h3a1 1 0 0 0 1-1v-3h5a1 1 0 0 0 1-1v-24a1 1 0 0 0 -1-1zm-49-24h46v24h-2v-19a1 1 0 0 0 -1-1h-43zm-4 6h46v18h-2v-13a1 1 0 0 0 -1-1h-43zm42 6v6h-46v-6zm-46 44v-36h46v4h-25a1 1 0 0 0 -1 1v24a1 1 0 0 0 1 1h25v6zm50-4h-2v-2h2zm6-4h-34v-22h34z"/><path d="m36.778 50.192 1.414-1.414-7.778-7.778 7.778-7.778-1.414-1.414-8.485 8.485a1 1 0 0 0 0 1.414z"/><path d="m49.222 50.192 8.485-8.485a1 1 0 0 0 0-1.414l-8.485-8.485-1.414 1.414 7.778 7.778-7.778 7.778z"/><path d="m33.78 40h18.439v2h-18.439z" transform="matrix(.217 -.976 .976 .217 -6.348 74.087)"/></g></svg>