<svg height="512" viewBox="0 0 512 512" width="512" xmlns="http://www.w3.org/2000/svg"><path d="m456 336h32v32h-32z" fill="#27a69b"/><path d="m456 256h32v32h-32z" fill="#27a69b"/><path d="m456 176h32v32h-32z" fill="#27a69b"/><path d="m456 88h32v32h-32z" fill="#27a69b"/><path d="m456 424h32v32h-32z" fill="#27a69b"/><path d="m240 88h32v32h-32z" fill="#27a69b"/><path d="m240 424h32v32h-32z" fill="#27a69b"/><path d="m24 336h32v32h-32z" fill="#27a69b" transform="matrix(-1 0 0 -1 80 704)"/><path d="m24 256h32v32h-32z" fill="#27a69b" transform="matrix(-1 0 0 -1 80 544)"/><path d="m24 176h32v32h-32z" fill="#27a69b" transform="matrix(-1 0 0 -1 80 384)"/><path d="m24 88h32v32h-32z" fill="#27a69b" transform="matrix(-1 0 0 -1 80 208)"/><path d="m24 424h32v32h-32z" fill="#27a69b" transform="matrix(-1 0 0 -1 80 880)"/><rect fill="#2dc2b4" height="464" rx="16" width="256" x="128" y="24"/><rect fill="#2ab3a6" height="464" rx="16" width="248" x="128" y="24"/><path d="m488 376h-32a8 8 0 0 1 -8-8v-32a8 8 0 0 1 8-8h32a8 8 0 0 1 8 8v32a8 8 0 0 1 -8 8zm-24-16h16v-16h-16z" fill="#2ed6d1"/><path d="m456 360h-32a8 8 0 0 1 -8-8v-24h-72v-16h80a8 8 0 0 1 8 8v24h24z" fill="#2ed6d1"/><rect fill="#27a69b" height="32" rx="16" width="128" x="192" y="24"/><path d="m192 208h128v128h-128z" fill="#f5b02e"/><path d="m224 240h64v64h-64z" fill="#d38e14"/><path d="m248 112h16v72h-16z" fill="#2ed6d1"/><path d="m312 184h-16v-80a8 8 0 0 1 8-8h144v16h-136z" fill="#2ed6d1"/><path d="m344 264h112v16h-112z" fill="#2ed6d1"/><path d="m488 296h-32a8 8 0 0 1 -8-8v-32a8 8 0 0 1 8-8h32a8 8 0 0 1 8 8v32a8 8 0 0 1 -8 8zm-24-16h16v-16h-16z" fill="#2ed6d1"/><path d="m488 216h-32a8 8 0 0 1 -8-8v-32a8 8 0 0 1 8-8h32a8 8 0 0 1 8 8v32a8 8 0 0 1 -8 8zm-24-16h16v-16h-16z" fill="#2ed6d1"/><path d="m488 128h-32a8 8 0 0 1 -8-8v-32a8 8 0 0 1 8-8h32a8 8 0 0 1 8 8v32a8 8 0 0 1 -8 8zm-24-16h16v-16h-16z" fill="#2ed6d1"/><path d="m448 448h-144a8 8 0 0 1 -8-8v-80h16v72h136z" fill="#2ed6d1"/><path d="m488 464h-32a8 8 0 0 1 -8-8v-32a8 8 0 0 1 8-8h32a8 8 0 0 1 8 8v32a8 8 0 0 1 -8 8zm-24-16h16v-16h-16z" fill="#2ed6d1"/><path d="m240 88h32v32h-32z" fill="#27a69b" transform="matrix(-1 0 0 -1 512 208)"/><path d="m272 128h-32a8 8 0 0 1 -8-8v-32a8 8 0 0 1 8-8h32a8 8 0 0 1 8 8v32a8 8 0 0 1 -8 8zm-24-16h16v-16h-16z" fill="#2ed6d1"/><path d="m240 424h32v32h-32z" fill="#27a69b" transform="matrix(-1 0 0 -1 512 880)"/><g fill="#2ed6d1"><path d="m272 464h-32a8 8 0 0 1 -8-8v-32a8 8 0 0 1 8-8h32a8 8 0 0 1 8 8v32a8 8 0 0 1 -8 8zm-24-16h16v-16h-16z"/><path d="m424 232h-80v-16h72v-24a8 8 0 0 1 8-8h32v16h-24v24a8 8 0 0 1 -8 8z"/><path d="m248 360h16v64h-16z"/><path d="m328 128h80v16h-80z"/><path d="m424 128h16v16h-16z"/><path d="m328 400h80v16h-80z"/><path d="m424 400h16v16h-16z"/><path d="m56 376h-32a8 8 0 0 1 -8-8v-32a8 8 0 0 1 8-8h32a8 8 0 0 1 8 8v32a8 8 0 0 1 -8 8zm-24-16h16v-16h-16z"/><path d="m88 360h-32v-16h24v-24a8 8 0 0 1 8-8h80v16h-72v24a8 8 0 0 1 -8 8z"/><path d="m216 184h-16v-72h-136v-16h144a8 8 0 0 1 8 8z"/><path d="m56 264h112v16h-112z"/><path d="m56 296h-32a8 8 0 0 1 -8-8v-32a8 8 0 0 1 8-8h32a8 8 0 0 1 8 8v32a8 8 0 0 1 -8 8zm-24-16h16v-16h-16z"/><path d="m56 216h-32a8 8 0 0 1 -8-8v-32a8 8 0 0 1 8-8h32a8 8 0 0 1 8 8v32a8 8 0 0 1 -8 8zm-24-16h16v-16h-16z"/><path d="m56 128h-32a8 8 0 0 1 -8-8v-32a8 8 0 0 1 8-8h32a8 8 0 0 1 8 8v32a8 8 0 0 1 -8 8zm-24-16h16v-16h-16z"/><path d="m208 448h-144v-16h136v-72h16v80a8 8 0 0 1 -8 8z"/><path d="m56 464h-32a8 8 0 0 1 -8-8v-32a8 8 0 0 1 8-8h32a8 8 0 0 1 8 8v32a8 8 0 0 1 -8 8zm-24-16h16v-16h-16z"/><path d="m168 232h-80a8 8 0 0 1 -8-8v-24h-24v-16h32a8 8 0 0 1 8 8v24h72z"/><path d="m104 128h80v16h-80z"/><path d="m72 128h16v16h-16z"/><path d="m104 400h80v16h-80z"/><path d="m72 400h16v16h-16z"/></g></svg>