<?xml version="1.0"?>
<svg xmlns="http://www.w3.org/2000/svg" viewBox="0 0 64 64" width="512" height="512"><g id="Cloud-2" data-name="Cloud"><path d="M6,46H8a1,1,0,0,0,0-2H6a1,1,0,0,0,0,2Z"/><path d="M12,46h2a1,1,0,0,0,0-2H12a1,1,0,0,0,0,2Z"/><path d="M18,46h2a1,1,0,0,0,0-2H18a1,1,0,0,0,0,2Z"/><path d="M6,58H8a1,1,0,0,0,0-2H6a1,1,0,0,0,0,2Z"/><path d="M12,58h2a1,1,0,0,0,0-2H12a1,1,0,0,0,0,2Z"/><path d="M18,58h2a1,1,0,0,0,0-2H18a1,1,0,0,0,0,2Z"/><path d="M44,58h2a1,1,0,0,0,0-2H44a1,1,0,0,0,0,2Z"/><path d="M50,58h2a1,1,0,0,0,0-2H50a1,1,0,0,0,0,2Z"/><path d="M56,58h2a1,1,0,0,0,0-2H56a1,1,0,0,0,0,2Z"/><path d="M61,50a1,1,0,0,0,1-1V41a1,1,0,0,0-1-1H52V37a1,1,0,0,0-1-1H35.858A4,4,0,0,0,33,33.142V28H46A10,10,0,0,0,49.209,8.534a8,8,0,0,0-9.7-4.135,12.968,12.968,0,0,0-18.7,4.008A9.907,9.907,0,0,0,18,8a10,10,0,0,0,0,20H31v5.142A4,4,0,0,0,28.142,36H13a1,1,0,0,0-1,1v3H3a1,1,0,0,0-1,1v8a1,1,0,0,0,1,1H4v2H3a1,1,0,0,0-1,1v8a1,1,0,0,0,1,1H23a1,1,0,0,0,1-1V53a1,1,0,0,0-1-1H22V50h1a1,1,0,0,0,1-1V41a1,1,0,0,0-1-1H14V38H28.142a3.981,3.981,0,0,0,7.716,0H50v2H41a1,1,0,0,0-1,1v8a1,1,0,0,0,1,1h1v2H41a1,1,0,0,0-1,1v8a1,1,0,0,0,1,1H61a1,1,0,0,0,1-1V53a1,1,0,0,0-1-1H60V50ZM10,18a7.986,7.986,0,0,1,10.916-7.443,1,1,0,0,0,1.259-.482A10.97,10.97,0,0,1,38.731,6.314a1,1,0,0,0,.993.136,5.994,5.994,0,0,1,7.829,3.282,1,1,0,0,0,.65.583A8,8,0,0,1,46,26H18A8.009,8.009,0,0,1,10,18ZM22,60H4V54H22Zm-2-8H6V50H20Zm2-4H4V42H22Zm10-9a2,2,0,1,1,2-2A2,2,0,0,1,32,39Zm10,3H60v6H42ZM60,60H42V54H60Zm-2-8H44V50H58Z"/><path d="M46,44H44a1,1,0,0,0,0,2h2a1,1,0,0,0,0-2Z"/><path d="M52,44H50a1,1,0,0,0,0,2h2a1,1,0,0,0,0-2Z"/><path d="M58,44H56a1,1,0,0,0,0,2h2a1,1,0,0,0,0-2Z"/></g></svg>
